<svg xmlns="http://www.w3.org/2000/svg" width="40.762" height="24.457" viewBox="0 0 40.762 24.457">
  <path id="Icon_awesome-money-bill" data-name="Icon awesome-money-bill" d="M38.724,4.5H2.038A2.038,2.038,0,0,0,0,6.538V26.919a2.038,2.038,0,0,0,2.038,2.038H38.724a2.038,2.038,0,0,0,2.038-2.038V6.538A2.038,2.038,0,0,0,38.724,4.5ZM3.057,25.9V21.824A4.076,4.076,0,0,1,7.133,25.9Zm0-14.267V7.557H7.133A4.076,4.076,0,0,1,3.057,11.633ZM20.381,22.843c-2.814,0-5.1-2.738-5.1-6.114s2.281-6.114,5.1-6.114,5.1,2.737,5.1,6.114S23.194,22.843,20.381,22.843ZM37.7,25.9H33.628A4.076,4.076,0,0,1,37.7,21.824Zm0-14.267a4.076,4.076,0,0,1-4.076-4.076H37.7Z" transform="translate(0 -4.5)" fill="#747474"/>
</svg>
