<svg xmlns="http://www.w3.org/2000/svg" width="18.821" height="16.73" viewBox="0 0 18.821 16.73">
  <path id="Icon_awesome-cart-plus" data-name="Icon awesome-cart-plus" d="M16.492,10.456H6.913L7.127,11.5H15.9a.784.784,0,0,1,.765.958l-.18.793a1.83,1.83,0,1,1-2.078.34H7.554a1.83,1.83,0,1,1-2.191-.28L3.068,2.091H.784A.784.784,0,0,1,0,1.307V.784A.784.784,0,0,1,.784,0h3.35A.784.784,0,0,1,4.9.627l.3,1.464H18.036a.784.784,0,0,1,.765.958l-1.545,6.8A.784.784,0,0,1,16.492,10.456Zm-3.16-4.967H11.763a7.973,7.973,0,0,1-1.568,0H8.626a.523.523,0,0,0-.523.523v.523a.523.523,0,0,0,.523.523h1.568c.035,0,1.572,0,1.568,0h1.568a.523.523,0,0,0,.523-.523V6.012A.523.523,0,0,0,13.331,5.489Z" fill="#fff"/>
</svg>
